<svg xmlns="http://www.w3.org/2000/svg" style="display: none;">
  <symbol id="icon-command" viewBox="0 0 24 24">
    <path d="M15 6v12a3 3 0 1 0 3-3H6a3 3 0 1 0 3 3V6a3 3 0 1 0-3 3h12a3 3 0 1 0-3-3" />
  </symbol>
  <symbol id="icon-file-text" viewBox="0 0 24 24">
    <path d="M6 22a2 2 0 0 1-2-2V4a2 2 0 0 1 2-2h8a2.4 2.4 0 0 1 1.704.706l3.588 3.588A2.4 2.4 0 0 1 20 8v12a2 2 0 0 1-2 2z" />
    <path d="M14 2v5a1 1 0 0 0 1 1h5" />
    <path d="M10 9H8" />
    <path d="M16 13H8" />
    <path d="M16 17H8" />
  </symbol>
  <symbol id="icon-image-up" viewBox="0 0 24 24">
    <path d="M10.3 21H5a2 2 0 0 1-2-2V5a2 2 0 0 1 2-2h14a2 2 0 0 1 2 2v10l-3.1-3.1a2 2 0 0 0-2.814.014L6 21" />
    <path d="m14 19.5 3-3 3 3" />
    <path d="M17 22v-5.5" />
    <circle cx="9" cy="9" r="2" />
  </symbol>
  <symbol id="icon-music-4" viewBox="0 0 24 24">
    <path d="M9 18V5l12-2v13" />
    <path d="m9 9 12-2" />
    <circle cx="6" cy="18" r="3" />
    <circle cx="18" cy="16" r="3" />
  </symbol>
  <symbol id="icon-type" viewBox="0 0 24 24">
    <path d="M12 4v16" />
    <path d="M4 7V5a1 1 0 0 1 1-1h14a1 1 0 0 1 1 1v2" />
    <path d="M9 20h6" />
  </symbol>
  <symbol id="icon-shapes" viewBox="0 0 24 24">
    <path d="M8.3 10a.7.7 0 0 1-.626-1.079L11.4 3a.7.7 0 0 1 1.198-.043L16.3 8.9a.7.7 0 0 1-.572 1.1Z" />
    <rect x="3" y="14" width="7" height="7" rx="1" />
    <circle cx="17.5" cy="17.5" r="3.5" />
  </symbol>
  <symbol id="icon-settings-2" viewBox="0 0 24 24">
    <path d="M14 17H5" />
    <path d="M19 7h-9" />
    <circle cx="17" cy="17" r="3" />
    <circle cx="7" cy="7" r="3" />
  </symbol>
  <symbol id="icon-upload" viewBox="0 0 24 24">
    <path d="M12 3v12" />
    <path d="m17 8-5-5-5 5" />
    <path d="M21 15v4a2 2 0 0 1-2 2H5a2 2 0 0 1-2-2v-4" />
  </symbol>
  <symbol id="icon-trash-2" viewBox="0 0 24 24">
    <path d="M10 11v6" />
    <path d="M14 11v6" />
    <path d="M19 6v14a2 2 0 0 1-2 2H7a2 2 0 0 1-2-2V6" />
    <path d="M3 6h18" />
    <path d="M8 6V4a2 2 0 0 1 2-2h4a2 2 0 0 1 2 2v2" />
  </symbol>
  <symbol id="icon-undo-2" viewBox="0 0 24 24">
    <path d="M9 14 4 9l5-5" />
    <path d="M4 9h10.5a5.5 5.5 0 0 1 5.5 5.5a5.5 5.5 0 0 1-5.5 5.5H11" />
  </symbol>
  <symbol id="icon-redo-2" viewBox="0 0 24 24">
    <path d="m15 14 5-5-5-5" />
    <path d="M20 9H9.5A5.5 5.5 0 0 0 4 14.5A5.5 5.5 0 0 0 9.5 20H13" />
  </symbol>
  <symbol id="icon-hand" viewBox="0 0 24 24">
    <path d="M18 11V6a2 2 0 0 0-2-2a2 2 0 0 0-2 2" />
    <path d="M14 10V4a2 2 0 0 0-2-2a2 2 0 0 0-2 2v2" />
    <path d="M10 10.5V6a2 2 0 0 0-2-2a2 2 0 0 0-2 2v8" />
    <path d="M18 8a2 2 0 1 1 4 0v6a8 8 0 0 1-8 8h-2c-2.8 0-4.5-.86-5.99-2.34l-3.6-3.6a2 2 0 0 1 2.83-2.82L7 15" />
  </symbol>
  <symbol id="icon-mouse-pointer-2" viewBox="0 0 24 24">
    <path d="M4.037 4.688a.495.495 0 0 1 .651-.651l16 6.5a.5.5 0 0 1-.063.947l-6.124 1.58a2 2 0 0 0-1.438 1.435l-1.579 6.126a.5.5 0 0 1-.947.063z" />
  </symbol>
  <symbol id="icon-panels-top-left" viewBox="0 0 24 24">
    <rect width="18" height="18" x="3" y="3" rx="2" />
    <path d="M3 9h18" />
    <path d="M9 21V9" />
  </symbol>
  <symbol id="icon-panel-right-open" viewBox="0 0 24 24">
    <rect width="18" height="18" x="3" y="3" rx="2" />
    <path d="M15 3v18" />
    <path d="m10 15-3-3 3-3" />
  </symbol>
  <symbol id="icon-columns-3" viewBox="0 0 24 24">
    <rect width="18" height="18" x="3" y="3" rx="2" />
    <path d="M9 3v18" />
    <path d="M15 3v18" />
  </symbol>
  <symbol id="icon-sparkles" viewBox="0 0 24 24">
    <path d="M11.017 2.814a1 1 0 0 1 1.966 0l1.051 5.558a2 2 0 0 0 1.594 1.594l5.558 1.051a1 1 0 0 1 0 1.966l-5.558 1.051a2 2 0 0 0-1.594 1.594l-1.051 5.558a1 1 0 0 1-1.966 0l-1.051-5.558a2 2 0 0 0-1.594-1.594l-5.558-1.051a1 1 0 0 1 0-1.966l5.558-1.051a2 2 0 0 0 1.594-1.594z" />
    <path d="M20 2v4" />
    <path d="M22 4h-4" />
    <circle cx="4" cy="20" r="2" />
  </symbol>
  <symbol id="icon-plus" viewBox="0 0 24 24">
    <path d="M5 12h14" />
    <path d="M12 5v14" />
  </symbol>
  <symbol id="icon-arrow-up" viewBox="0 0 24 24">
    <path d="m5 12 7-7 7 7" />
    <path d="M12 19V5" />
  </symbol>
  <symbol id="icon-scissors-line-dashed" viewBox="0 0 24 24">
    <path d="M5.42 9.42 8 12" />
    <circle cx="4" cy="8" r="2" />
    <path d="m14 6-8.58 8.58" />
    <circle cx="4" cy="16" r="2" />
    <path d="M10.8 14.8 14 18" />
    <path d="M16 12h-2" />
    <path d="M22 12h-2" />
  </symbol>
  <symbol id="icon-play" viewBox="0 0 24 24">
    <path d="M5 5a2 2 0 0 1 3.008-1.728l11.997 6.998a2 2 0 0 1 .003 3.458l-12 7A2 2 0 0 1 5 19z" />
  </symbol>
  <symbol id="icon-skip-back" viewBox="0 0 24 24">
    <path d="M17.971 4.285A2 2 0 0 1 21 6v12a2 2 0 0 1-3.029 1.715l-9.997-5.998a2 2 0 0 1-.003-3.432z" />
    <path d="M3 20V4" />
  </symbol>
  <symbol id="icon-skip-forward" viewBox="0 0 24 24">
    <path d="M21 4v16" />
    <path d="M6.029 4.285A2 2 0 0 0 3 6v12a2 2 0 0 0 3.029 1.715l9.997-5.998a2 2 0 0 0 .003-3.432z" />
  </symbol>
  <symbol id="icon-minus" viewBox="0 0 24 24">
    <path d="M5 12h14" />
  </symbol>
  <symbol id="icon-chevron-down" viewBox="0 0 24 24">
    <path d="m6 9 6 6 6-6" />
  </symbol>
  <symbol id="icon-history" viewBox="0 0 24 24">
    <path d="M3 12a9 9 0 1 0 9-9 9.75 9.75 0 0 0-6.74 2.74L3 8" />
    <path d="M3 3v5h5" />
    <path d="M12 7v5l4 2" />
  </symbol>
  <symbol id="icon-pipette" viewBox="0 0 24 24">
    <path d="m12 9-8.414 8.414A2 2 0 0 0 3 18.828v1.344a2 2 0 0 1-.586 1.414A2 2 0 0 1 3.828 21h1.344a2 2 0 0 0 1.414-.586L15 12" />
    <path d="m18 9 .4.4a1 1 0 1 1-3 3l-3.8-3.8a1 1 0 1 1 3-3l.4.4 3.4-3.4a1 1 0 1 1 3 3z" />
    <path d="m2 22 .414-.414" />
  </symbol>
  <symbol id="icon-wand-sparkles" viewBox="0 0 24 24">
    <path d="m21.64 3.64-1.28-1.28a1.21 1.21 0 0 0-1.72 0L2.36 18.64a1.21 1.21 0 0 0 0 1.72l1.28 1.28a1.2 1.2 0 0 0 1.72 0L21.64 5.36a1.2 1.2 0 0 0 0-1.72" />
    <path d="m14 7 3 3" />
    <path d="M5 6v4" />
    <path d="M19 14v4" />
    <path d="M10 2v2" />
    <path d="M7 8H3" />
    <path d="M21 16h-4" />
    <path d="M11 3H9" />
  </symbol>
</svg>
