<svg width="30" height="16" viewBox="0 0 30 16" fill="none" xmlns="http://www.w3.org/2000/svg">
<path d="M28.3192 3.15431C27.053 1.55787 25.2991 0.516627 23.353 0.149018C22.6858 0.0230079 21.9961 -0.025312 21.2967 0.0125858C19.3214 0.1187 17.4621 0.955293 16.0194 2.2694L15.9384 2.3433L12.693 5.49545L8.51206 1.4347C5.371 -1.61607 0 0.544103 0 4.85972V11.1403C0 15.455 5.371 17.6161 8.51206 14.5653L12.693 10.5046L15.9384 13.6567L16.1198 13.8178C17.5567 15.0883 19.3887 15.8918 21.3299 15.9894C22.0186 16.0235 22.6965 15.9751 23.354 15.851C24.9479 15.5497 26.4131 14.7965 27.5876 13.6567C29.3883 11.9078 30.2526 9.49178 29.9356 6.98199C29.76 5.59209 29.2001 4.26282 28.3202 3.15337L28.3192 3.15431ZM3.64343 11.2607V4.73939C3.64343 3.62425 5.03251 3.06525 5.84411 3.85353L9.59679 7.49835C9.88163 7.77501 9.88163 8.22315 9.59679 8.4998L5.84411 12.1446C5.03154 12.9338 3.64343 12.3749 3.64343 11.2588V11.2607ZM24.6407 11.4748C23.992 11.9864 23.2028 12.3171 22.3746 12.4213C20.9241 12.6022 19.5262 12.1351 18.5156 11.1536L15.7852 8.50075C15.5004 8.22409 15.5004 7.77595 15.7852 7.4993L18.5156 4.8474L18.5205 4.84266C19.1828 4.21924 20.0101 3.77015 20.9182 3.61382C22.7853 3.29264 24.5958 4.05154 25.6405 5.60536C25.9332 6.04118 26.141 6.52911 26.2502 7.03884C26.6141 8.73761 25.9976 10.4051 24.6416 11.4748H24.6407Z" fill="#FAFAFA"/>
</svg>
