<svg width="1076" height="557" viewBox="0 0 1076 557" fill="none" xmlns="http://www.w3.org/2000/svg">
<path d="M1015.93 117.836C973.993 63.4043 915.866 27.8757 851.459 15.3761C829.354 11.0658 806.509 9.46482 783.357 10.6963C717.903 14.3292 656.328 42.8384 608.546 87.6648L605.837 90.1894L498.328 197.699L295.201 47.8806C164.869 -33.022 13.25 17.5242 13.25 164.688V396.088C13.25 543.252 183.438 603.194 295.201 512.896L498.328 368.569L605.837 476.079L611.872 481.559C659.469 524.908 720.182 552.308 784.466 555.633C807.31 556.803 829.723 555.14 851.521 550.953C904.29 540.67 952.873 514.994 991.727 476.14C1051.39 416.474 1080.02 334.087 1069.5 248.498C1063.71 201.085 1045.11 155.767 1015.99 117.96L1015.93 117.836ZM133.937 392.606V170.197C133.937 132.144 179.933 113.118 206.841 140.026L331.161 264.345C340.582 273.766 340.582 289.098 331.161 298.519L206.841 422.839C179.933 449.747 133.937 430.659 133.937 392.667V392.606ZM894.069 401.635C872.58 419.06 846.472 430.39 819.009 433.9C770.981 440.058 724.677 424.11 691.18 390.674L600.727 300.221C591.306 290.8 591.306 275.468 600.727 266.047L691.18 175.594L691.365 175.409C713.285 154.166 740.686 138.834 770.796 133.538C832.617 122.578 892.591 148.439 927.196 201.455C936.925 216.295 943.76 232.981 947.393 250.345C959.461 308.287 939.019 365.121 894.069 401.635Z" stroke="#353535" stroke-linejoin="round"/>
</svg>
